<svg xmlns="http://www.w3.org/2000/svg" xmlns:xlink="http://www.w3.org/1999/xlink" width="500" zoomAndPan="magnify" viewBox="0 0 375 374.999991" height="500" preserveAspectRatio="xMidYMid meet" version="1.0"><defs><clipPath id="ac1f015cf1"><path d="M 39 62 L 336 62 L 336 320.289062 L 39 320.289062 Z M 39 62 " clip-rule="nonzero"/></clipPath></defs><rect x="-37.5" width="450" fill="#ffffff" y="-37.499999" height="449.999989" fill-opacity="1"/><rect x="-37.5" width="450" fill="#ffffff" y="-37.499999" height="449.999989" fill-opacity="1"/><g clip-path="url(#ac1f015cf1)"><path fill="#6c5dd2" d="M 312.761719 85.605469 C 281.933594 54.789062 231.808594 54.789062 200.984375 85.605469 L 194.988281 91.636719 L 202.335938 98.984375 L 208.332031 92.949219 C 235.097656 66.195312 278.648438 66.195312 305.410156 92.949219 C 332.175781 119.707031 332.136719 163.242188 305.410156 189.957031 L 187.601562 307.726562 L 69.789062 189.957031 C 43.023438 163.203125 43.023438 119.707031 69.789062 92.949219 C 70.585938 92.15625 71.398438 91.386719 72.230469 90.632812 C 73.0625 89.878906 73.914062 89.148438 74.785156 88.4375 C 75.652344 87.722656 76.539062 87.035156 77.441406 86.367188 C 78.34375 85.699219 79.261719 85.054688 80.195312 84.429688 C 81.132812 83.808594 82.082031 83.207031 83.042969 82.632812 C 84.007812 82.054688 84.984375 81.503906 85.976562 80.976562 C 86.96875 80.445312 87.96875 79.941406 88.984375 79.464844 C 90 78.984375 91.027344 78.53125 92.066406 78.101562 C 93.105469 77.671875 94.152344 77.269531 95.210938 76.890625 C 96.265625 76.511719 97.332031 76.160156 98.40625 75.835938 C 99.484375 75.511719 100.566406 75.210938 101.65625 74.941406 C 102.746094 74.667969 103.839844 74.421875 104.941406 74.203125 C 106.042969 73.984375 107.148438 73.792969 108.261719 73.628906 C 109.371094 73.464844 110.484375 73.328125 111.601562 73.21875 C 112.71875 73.105469 113.839844 73.023438 114.960938 72.96875 C 116.082031 72.914062 117.207031 72.886719 118.328125 72.886719 C 119.453125 72.886719 120.574219 72.914062 121.695312 72.96875 C 122.816406 73.023438 123.9375 73.105469 125.054688 73.21875 C 126.171875 73.328125 127.289062 73.464844 128.398438 73.628906 C 129.507812 73.792969 130.617188 73.984375 131.71875 74.203125 C 132.820312 74.421875 133.914062 74.667969 135.003906 74.941406 C 136.09375 75.210938 137.175781 75.511719 138.25 75.835938 C 139.324219 76.160156 140.390625 76.511719 141.449219 76.890625 C 142.507812 77.269531 143.554688 77.671875 144.59375 78.101562 C 145.628906 78.53125 146.65625 78.984375 147.671875 79.464844 C 148.6875 79.941406 149.691406 80.445312 150.683594 80.976562 C 151.671875 81.503906 152.648438 82.054688 153.613281 82.632812 C 154.578125 83.207031 155.527344 83.808594 156.460938 84.429688 C 157.394531 85.054688 158.3125 85.699219 159.21875 86.367188 C 160.121094 87.035156 161.003906 87.722656 161.875 88.4375 C 162.742188 89.148438 163.59375 89.878906 164.425781 90.632812 C 165.261719 91.386719 166.074219 92.15625 166.871094 92.949219 L 182.109375 108.183594 L 184.390625 110.464844 L 205.351562 131.421875 L 221.558594 147.621094 C 222.671875 148.734375 223.726562 149.894531 224.726562 151.113281 C 225.726562 152.328125 226.660156 153.589844 227.535156 154.898438 C 228.410156 156.203125 229.21875 157.550781 229.960938 158.9375 C 230.703125 160.324219 231.375 161.746094 231.976562 163.199219 C 232.578125 164.652344 233.109375 166.128906 233.566406 167.636719 C 234.023438 169.140625 234.40625 170.664062 234.710938 172.207031 C 235.019531 173.75 235.25 175.304688 235.40625 176.867188 C 235.558594 178.433594 235.636719 180.003906 235.636719 181.578125 C 235.636719 183.148438 235.5625 184.71875 235.40625 186.285156 C 235.253906 187.847656 235.023438 189.402344 234.714844 190.945312 C 234.410156 192.488281 234.027344 194.011719 233.570312 195.515625 C 233.113281 197.023438 232.585938 198.5 231.984375 199.957031 C 231.382812 201.410156 230.710938 202.828125 229.96875 204.214844 C 229.226562 205.601562 228.417969 206.949219 227.542969 208.257812 C 226.671875 209.566406 225.734375 210.828125 224.738281 212.042969 C 223.738281 213.261719 222.683594 214.425781 221.570312 215.535156 C 220.457031 216.648438 219.292969 217.703125 218.078125 218.703125 C 216.863281 219.699219 215.597656 220.636719 214.292969 221.507812 C 212.984375 222.382812 211.636719 223.191406 210.246094 223.933594 C 208.859375 224.675781 207.4375 225.347656 205.984375 225.949219 C 204.53125 226.550781 203.050781 227.078125 201.546875 227.535156 C 200.039062 227.992188 198.515625 228.375 196.972656 228.679688 C 195.429688 228.988281 193.875 229.21875 192.308594 229.371094 C 190.742188 229.527344 189.175781 229.605469 187.601562 229.605469 C 186.027344 229.605469 184.457031 229.527344 182.890625 229.371094 C 181.324219 229.21875 179.769531 228.988281 178.226562 228.679688 C 176.683594 228.375 175.160156 227.992188 173.65625 227.535156 C 172.148438 227.078125 170.667969 226.550781 169.214844 225.949219 C 167.761719 225.347656 166.339844 224.675781 164.953125 223.933594 C 163.566406 223.191406 162.21875 222.382812 160.910156 221.507812 C 159.601562 220.636719 158.339844 219.699219 157.125 218.703125 C 155.90625 217.703125 154.742188 216.648438 153.628906 215.535156 C 152.515625 214.425781 151.460938 213.261719 150.464844 212.042969 C 149.464844 210.828125 148.53125 209.566406 147.65625 208.257812 C 146.78125 206.949219 145.972656 205.601562 145.234375 204.214844 C 144.492188 202.828125 143.820312 201.410156 143.21875 199.957031 C 142.617188 198.5 142.085938 197.023438 141.628906 195.515625 C 141.171875 194.011719 140.792969 192.488281 140.484375 190.945312 C 140.179688 189.402344 139.949219 187.847656 139.792969 186.285156 C 139.640625 184.71875 139.5625 183.148438 139.5625 181.578125 C 139.5625 180.003906 139.640625 178.433594 139.796875 176.867188 C 139.949219 175.304688 140.179688 173.75 140.488281 172.207031 C 140.796875 170.664062 141.175781 169.140625 141.632812 167.636719 C 142.089844 166.128906 142.621094 164.652344 143.222656 163.199219 C 143.824219 161.746094 144.5 160.324219 145.242188 158.9375 C 145.984375 157.550781 146.789062 156.203125 147.664062 154.898438 C 148.539062 153.589844 149.476562 152.328125 150.476562 151.113281 C 151.472656 149.894531 152.527344 148.734375 153.640625 147.621094 L 180.25 121.058594 L 172.902344 113.714844 L 146.292969 140.273438 C 123.511719 163.046875 123.511719 200.085938 146.292969 222.859375 C 147.644531 224.210938 149.0625 225.496094 150.539062 226.710938 C 152.019531 227.925781 153.554688 229.0625 155.144531 230.128906 C 156.734375 231.191406 158.375 232.175781 160.0625 233.078125 C 161.75 233.980469 163.476562 234.796875 165.246094 235.53125 C 167.011719 236.261719 168.8125 236.90625 170.644531 237.464844 C 172.476562 238.019531 174.328125 238.484375 176.207031 238.859375 C 178.082031 239.230469 179.972656 239.511719 181.878906 239.699219 C 183.785156 239.886719 185.691406 239.984375 187.605469 239.984375 C 189.519531 239.984375 191.429688 239.890625 193.335938 239.703125 C 195.238281 239.515625 197.128906 239.234375 199.007812 238.863281 C 200.882812 238.492188 202.738281 238.027344 204.570312 237.472656 C 206.402344 236.917969 208.203125 236.273438 209.96875 235.539062 C 211.738281 234.808594 213.464844 233.992188 215.152344 233.089844 C 216.839844 232.1875 218.480469 231.207031 220.074219 230.144531 C 221.664062 229.082031 223.199219 227.941406 224.679688 226.730469 C 226.160156 225.515625 227.574219 224.230469 228.929688 222.878906 C 230.28125 221.527344 231.566406 220.109375 232.777344 218.632812 C 233.992188 217.152344 235.132812 215.617188 236.195312 214.027344 C 237.257812 212.4375 238.242188 210.796875 239.144531 209.109375 C 240.042969 207.421875 240.863281 205.695312 241.59375 203.929688 C 242.328125 202.160156 242.96875 200.359375 243.523438 198.53125 C 244.082031 196.699219 244.542969 194.84375 244.917969 192.96875 C 245.289062 191.09375 245.570312 189.203125 245.757812 187.296875 C 245.945312 185.394531 246.039062 183.484375 246.039062 181.574219 C 246.039062 179.660156 245.945312 177.75 245.753906 175.847656 C 245.566406 173.945312 245.285156 172.054688 244.914062 170.175781 C 244.539062 168.300781 244.074219 166.449219 243.515625 164.617188 C 242.960938 162.785156 242.316406 160.988281 241.582031 159.21875 C 240.851562 157.453125 240.03125 155.726562 239.128906 154.039062 C 238.226562 152.351562 237.242188 150.714844 236.179688 149.125 C 235.113281 147.53125 233.976562 146 232.761719 144.519531 C 231.546875 143.042969 230.261719 141.625 228.90625 140.273438 L 212.585938 123.957031 L 195.027344 106.40625 L 194.949219 106.328125 L 191.273438 102.65625 L 174.179688 85.566406 C 143.390625 54.789062 93.265625 54.789062 62.441406 85.605469 C 31.613281 116.417969 31.613281 166.527344 62.441406 197.339844 L 183.925781 318.742188 C 184.40625 319.242188 184.964844 319.628906 185.601562 319.898438 C 186.242188 320.164062 186.90625 320.296875 187.601562 320.289062 C 188.292969 320.292969 188.957031 320.160156 189.59375 319.890625 C 190.234375 319.621094 190.792969 319.238281 191.273438 318.742188 L 312.761719 197.304688 C 313.675781 196.386719 314.566406 195.453125 315.433594 194.496094 C 316.300781 193.535156 317.144531 192.558594 317.964844 191.558594 C 318.785156 190.558594 319.578125 189.539062 320.347656 188.5 C 321.117188 187.460938 321.859375 186.40625 322.578125 185.332031 C 323.296875 184.257812 323.988281 183.164062 324.652344 182.054688 C 325.316406 180.945312 325.953125 179.824219 326.5625 178.683594 C 327.171875 177.542969 327.75 176.386719 328.304688 175.21875 C 328.855469 174.050781 329.378906 172.871094 329.875 171.675781 C 330.367188 170.480469 330.832031 169.277344 331.269531 168.058594 C 331.703125 166.84375 332.109375 165.613281 332.484375 164.378906 C 332.859375 163.140625 333.203125 161.894531 333.519531 160.640625 C 333.832031 159.390625 334.113281 158.128906 334.367188 156.859375 C 334.617188 155.59375 334.839844 154.320312 335.027344 153.042969 C 335.21875 151.761719 335.375 150.480469 335.503906 149.195312 C 335.628906 147.910156 335.726562 146.621094 335.789062 145.328125 C 335.851562 144.039062 335.882812 142.746094 335.882812 141.453125 C 335.882812 140.160156 335.851562 138.871094 335.789062 137.578125 C 335.726562 136.289062 335.628906 135 335.503906 133.714844 C 335.375 132.425781 335.21875 131.144531 335.027344 129.867188 C 334.839844 128.589844 334.617188 127.316406 334.367188 126.046875 C 334.113281 124.78125 333.832031 123.519531 333.519531 122.265625 C 333.203125 121.011719 332.859375 119.765625 332.484375 118.53125 C 332.109375 117.292969 331.703125 116.066406 331.269531 114.847656 C 330.832031 113.632812 330.367188 112.425781 329.875 111.230469 C 329.378906 110.039062 328.855469 108.855469 328.304688 107.6875 C 327.75 106.519531 327.171875 105.367188 326.5625 104.226562 C 325.953125 103.085938 325.316406 101.960938 324.652344 100.851562 C 323.988281 99.742188 323.296875 98.652344 322.578125 97.578125 C 321.859375 96.5 321.117188 95.445312 320.347656 94.40625 C 319.578125 93.367188 318.785156 92.347656 317.964844 91.351562 C 317.144531 90.351562 316.300781 89.371094 315.433594 88.414062 C 314.566406 87.457031 313.675781 86.519531 312.761719 85.605469 Z M 312.761719 85.605469 " fill-opacity="1" fill-rule="nonzero"/></g><path fill="#6c5dd2" d="M 166.132812 182.84375 L 184.351562 182.84375 L 184.351562 201.039062 L 166.132812 201.039062 Z M 166.132812 182.84375 " fill-opacity="1" fill-rule="nonzero"/><path fill="#6c5dd2" d="M 190.886719 182.84375 L 209.105469 182.84375 L 209.105469 201.039062 L 190.886719 201.039062 Z M 190.886719 182.84375 " fill-opacity="1" fill-rule="nonzero"/><path fill="#6c5dd2" d="M 184.351562 153.496094 L 184.351562 176.269531 L 166.132812 176.269531 L 166.132812 171.707031 C 166.132812 171.113281 166.164062 170.515625 166.222656 169.921875 C 166.28125 169.328125 166.367188 168.738281 166.484375 168.15625 C 166.601562 167.570312 166.746094 166.992188 166.917969 166.421875 C 167.09375 165.851562 167.292969 165.289062 167.519531 164.738281 C 167.75 164.1875 168.003906 163.648438 168.285156 163.125 C 168.566406 162.597656 168.875 162.085938 169.203125 161.589844 C 169.535156 161.09375 169.890625 160.617188 170.269531 160.15625 C 170.648438 159.695312 171.046875 159.253906 171.46875 158.832031 C 171.890625 158.410156 172.332031 158.007812 172.792969 157.632812 C 173.257812 157.253906 173.734375 156.898438 174.230469 156.566406 C 174.726562 156.234375 175.238281 155.929688 175.765625 155.648438 C 176.289062 155.367188 176.828125 155.113281 177.378906 154.882812 C 177.929688 154.65625 178.492188 154.453125 179.0625 154.28125 C 179.632812 154.109375 180.210938 153.964844 180.796875 153.847656 C 181.382812 153.730469 181.972656 153.644531 182.566406 153.585938 C 183.160156 153.527344 183.753906 153.496094 184.351562 153.496094 Z M 184.351562 153.496094 " fill-opacity="1" fill-rule="nonzero"/><path fill="#6c5dd2" d="M 190.886719 153.496094 C 191.484375 153.496094 192.078125 153.527344 192.671875 153.585938 C 193.265625 153.644531 193.855469 153.730469 194.441406 153.847656 C 195.027344 153.964844 195.605469 154.109375 196.175781 154.28125 C 196.746094 154.453125 197.308594 154.65625 197.859375 154.882812 C 198.410156 155.113281 198.949219 155.367188 199.476562 155.648438 C 200 155.929688 200.511719 156.234375 201.007812 156.566406 C 201.503906 156.898438 201.984375 157.253906 202.445312 157.632812 C 202.90625 158.007812 203.347656 158.410156 203.769531 158.832031 C 204.191406 159.253906 204.589844 159.695312 204.96875 160.15625 C 205.347656 160.617188 205.703125 161.09375 206.035156 161.589844 C 206.367188 162.085938 206.671875 162.597656 206.953125 163.125 C 207.234375 163.648438 207.488281 164.1875 207.71875 164.738281 C 207.945312 165.289062 208.148438 165.851562 208.320312 166.421875 C 208.492188 166.992188 208.636719 167.570312 208.753906 168.15625 C 208.871094 168.738281 208.957031 169.328125 209.015625 169.921875 C 209.074219 170.515625 209.105469 171.113281 209.105469 171.707031 L 209.105469 176.269531 L 190.886719 176.269531 Z M 190.886719 153.496094 " fill-opacity="1" fill-rule="nonzero"/></svg>